<svg width="512" height="512" viewBox="0 0 512 512" fill="none" xmlns="http://www.w3.org/2000/svg">
<g clip-path="url(#clip0_202_2)">
<rect width="512" height="512" fill="white"/>
<line x1="126.5" y1="512" x2="126.5" y2="-6.7616e-08" stroke="black" stroke-width="3"/>
<line x1="254.5" y1="512" x2="254.5" y2="-6.7616e-08" stroke="black" stroke-width="3"/>
<line x1="382.5" y1="512" x2="382.5" y2="-6.7616e-08" stroke="black" stroke-width="3"/>
<line x1="-4" y1="254.5" x2="508" y2="254.5" stroke="black" stroke-width="3"/>
<line y1="382.5" x2="512" y2="382.5" stroke="black" stroke-width="3"/>
<line x1="-4" y1="510.5" x2="512" y2="510.5" stroke="black" stroke-width="3"/>
<line x1="-4" y1="126.5" x2="512" y2="126.5" stroke="black" stroke-width="3"/>
<line x1="-4" y1="1.5" x2="512" y2="1.50005" stroke="black" stroke-width="3"/>
<line x1="1.5" y1="512" x2="1.50002" y2="-6.7616e-08" stroke="black" stroke-width="3"/>
<line x1="510.5" y1="512" x2="510.5" y2="-6.7616e-08" stroke="black" stroke-width="3"/>
<path d="M109.48 300.637L84.9586 363H54.9879L142.024 149.724H174.871L260.545 363H231.028L206.658 300.637H109.48ZM158.069 171.521C156.353 177.172 154.285 183.479 151.863 190.441C149.542 197.303 147.372 203.358 145.354 208.605L118.259 278.083H198.03L170.632 207.697C169.22 204.165 167.353 199.17 165.032 192.712C162.711 186.254 160.39 179.19 158.069 171.521ZM444.389 304.118C444.389 323.796 436.669 339.034 421.23 349.831C405.891 360.629 384.246 366.027 356.293 366.027C304.324 366.027 274.202 347.964 265.927 311.838L293.93 306.237C297.159 319.053 304.021 328.488 314.516 334.543C325.011 340.497 339.29 343.474 357.353 343.474C376.022 343.474 390.401 340.295 400.493 333.938C410.685 327.479 415.781 318.044 415.781 305.632C415.781 298.669 414.166 293.018 410.937 288.679C407.809 284.34 403.369 280.757 397.617 277.932C391.865 275.106 385.003 272.735 377.031 270.817C369.059 268.9 360.229 266.831 350.541 264.611C339.34 262.089 329.955 259.616 322.387 257.194C314.92 254.772 308.764 252.25 303.92 249.626C299.077 246.901 294.939 244.025 291.508 240.998C286.463 236.356 282.578 230.957 279.853 224.802C277.229 218.646 275.917 211.582 275.917 203.61C275.917 185.345 282.88 171.268 296.806 161.379C310.833 151.49 330.864 146.545 356.899 146.545C381.118 146.545 399.635 150.279 412.451 157.746C425.266 165.113 434.247 177.727 439.394 195.588L410.937 200.583C407.809 189.281 401.855 181.107 393.076 176.062C384.296 170.915 372.136 168.342 356.596 168.342C339.542 168.342 326.524 171.167 317.543 176.818C308.562 182.469 304.072 190.896 304.072 202.097C304.072 208.656 305.787 214.105 309.218 218.444C312.75 222.683 317.796 226.265 324.355 229.191C330.51 232.118 343.579 235.801 363.559 240.241C371.733 242.159 379.806 244.177 387.778 246.296C395.75 248.314 403.268 250.887 410.331 254.016C414.469 255.731 418.404 257.85 422.138 260.373C425.973 262.795 429.303 265.62 432.128 268.85C435.963 273.088 438.94 278.083 441.059 283.835C443.279 289.587 444.389 296.348 444.389 304.118Z" fill="#5D5D5D"/>
</g>
<defs>
<clipPath id="clip0_202_2">
<rect width="512" height="512" fill="white"/>
</clipPath>
</defs>
</svg>
