<?xml version="1.0" encoding="UTF-8"?>
<svg id="Layer_1" xmlns="http://www.w3.org/2000/svg" xmlns:xlink="http://www.w3.org/1999/xlink" version="1.1" viewBox="0 0 600 400">
  <!-- Generator: Adobe Illustrator 29.3.1, SVG Export Plug-In . SVG Version: 2.1.0 Build 151)  -->
  <defs>
    <style>
      .st0, .st1, .st2 {
        fill: none;
      }

      .st3 {
        fill: #666;
        font-size: 18px;
      }

      .st3, .st4, .st5, .st6, .st7, .st8 {
        font-family: Georgia, Georgia;
      }

      .st3, .st4, .st6, .st9, .st7, .st10, .st8 {
        isolation: isolate;
      }

      .st4 {
        fill: #999;
        font-size: 7.2px;
      }

      .st5, .st11, .st6, .st9, .st7, .st10, .st8 {
        fill: #333;
      }

      .st5, .st6, .st7, .st8 {
        font-size: 16px;
      }

      .st11, .st9, .st10 {
        font-family: Georgia-Bold, Georgia;
        font-size: 20px;
        font-weight: 700;
      }

      .st6 {
        display: none;
      }

      .st12 {
        fill: #fff;
      }

      .st1 {
        stroke: #333;
      }

      .st10 {
        letter-spacing: -.3em;
      }

      .st13 {
        fill: #155f83;
        stroke: #fff;
      }

      .st2 {
        stroke: #e6e6e6;
      }

      .st14 {
        clip-path: url(#clippath);
      }

      .st8 {
        letter-spacing: -.2em;
      }
    </style>
    <clipPath id="clippath">
      <rect class="st0" x="174" y="92" width="416" height="260"/>
    </clipPath>
  </defs>
  <rect class="st12" width="600" height="400"/>
  <rect class="st0" x="174" y="92" width="416" height="260"/>
  <g>
    <path class="st0" d="M174,144.5h416"/>
    <path class="st0" d="M174,196.5h416"/>
    <path class="st0" d="M174,248.5h416"/>
    <path class="st0" d="M174,300.5h416"/>
    <path class="st0" d="M174,352.5h416"/>
    <path class="st0" d="M174,92.5h416"/>
  </g>
  <g>
    <path class="st2" d="M173.5,92v260"/>
    <path class="st2" d="M277.5,92v260"/>
    <path class="st2" d="M381.5,92v260"/>
    <path class="st2" d="M485.5,92v260"/>
    <path class="st2" d="M590.5,92v260"/>
  </g>
  <rect class="st0" x="174" y="92" width="416" height="260"/>
  <path class="st1" d="M173.5,92v260"/>
  <path class="st0" d="M174,352h416"/>
  <g class="st14">
    <g>
      <path class="st13" d="M556.5,138.5v-41c0-1.7-1.3-3-3-3H173.5v47h380c1.7,0,3-1.3,3-3Z"/>
      <path class="st13" d="M494.5,190.5v-41c0-1.7-1.3-3-3-3H173.5v47h318c1.7,0,3-1.3,3-3Z"/>
      <path class="st13" d="M224.5,242.5v-41c0-1.7-1.3-3-3-3h-48v47h48c1.7,0,3-1.3,3-3Z"/>
      <path class="st13" d="M210.5,294.5v-41c0-1.7-1.3-3-3-3h-34v47h34c1.7,0,3-1.3,3-3h0Z"/>
      <path class="st13" d="M210.5,346.5v-41c0-1.7-1.3-3-3-3h-34v47h34c1.7,0,3-1.3,3-3h0Z"/>
    </g>
  </g>
  <g>
    <text class="st9" transform="translate(43.1 25)"><tspan x="0" y="0">Top Five Campaigns/Committees Faculty Donated</tspan></text>
    <text class="st10" transform="translate(173.6 48)"><tspan x="0" y="0">​</tspan></text>
    <text class="st11" transform="translate(193.6 48)"><tspan x="0" y="0">to in the 2020 Election</tspan></text>
  </g>
  <text class="st3" transform="translate(42.6 75)"><tspan x="0" y="0">The top five campaigns/committees were all Democratic leaning.</tspan></text>
  <g>
    <g>
      <text class="st7" transform="translate(9.9 115)"><tspan x="0" y="0">Biden For President/</tspan></text>
      <text class="st8" transform="translate(5.1 134)"><tspan x="0" y="0">​</tspan></text>
      <text class="st5" transform="translate(21.1 134)"><tspan x="0" y="0">Biden Victory Fund</tspan></text>
    </g>
    <text class="st7" transform="translate(103.5 176)"><tspan x="0" y="0">ActBlue</tspan></text>
    <g>
      <text class="st7" transform="translate(12.1 219)"><tspan x="0" y="0">Democratic National</tspan></text>
      <text class="st8" transform="translate(64.7 238)"><tspan x="0" y="0">​</tspan></text>
      <text class="st5" transform="translate(80.7 238)"><tspan x="0" y="0">Committee</tspan></text>
    </g>
    <text class="st7" transform="translate(116.2 280)"><tspan x="0" y="0">DCCC</tspan></text>
    <g>
      <text class="st7" transform="translate(21.2 323)"><tspan x="0" y="0">Lauren Underwood</tspan></text>
      <text class="st8" transform="translate(49.8 342)"><tspan x="0" y="0">​</tspan></text>
      <text class="st5" transform="translate(65.8 342)"><tspan x="0" y="0">For Congress</tspan></text>
    </g>
  </g>
  <g>
    <text class="st7" transform="translate(164.2 382)"><tspan x="0" y="0">$0</tspan></text>
    <text class="st7" transform="translate(255.6 382)"><tspan x="0" y="0">$100k</tspan></text>
    <text class="st7" transform="translate(358.5 382)"><tspan x="0" y="0">$200k</tspan></text>
    <text class="st7" transform="translate(462.6 382)"><tspan x="0" y="0">$300k</tspan></text>
    <text class="st6" transform="translate(-23.5)"><tspan x="0" y="0">$400k</tspan></text>
  </g>
  <text class="st4" transform="translate(539.1 395)"><tspan x="0" y="0">Highcharts.com</tspan></text>
</svg>