<?xml version="1.0" encoding="UTF-8"?>
<svg xmlns="http://www.w3.org/2000/svg" xmlns:xlink="http://www.w3.org/1999/xlink" version="1.1" viewBox="0 0 600 400">
  <!-- Generator: Adobe Illustrator 29.3.1, SVG Export Plug-In . SVG Version: 2.1.0 Build 151)  -->
  <defs>
    <style>
      .st0, .st1, .st2 {
        fill: none;
      }

      .st3, .st4, .st5, .st6, .st7, .st8, .st9, .st10 {
        fill: #333;
      }

      .st3, .st6, .st11, .st9, .st10 {
        font-family: Georgia, Georgia;
      }

      .st3, .st9 {
        font-size: 14px;
      }

      .st12 {
        font-family: MyriadPro-Regular, 'Myriad Pro';
        font-size: 15px;
      }

      .st4, .st5, .st7, .st13, .st8 {
        font-family: Georgia-Bold, Georgia;
        font-weight: 700;
      }

      .st4, .st7, .st8 {
        font-size: 20px;
      }

      .st5, .st6, .st11, .st7, .st13, .st8, .st9, .st10 {
        isolation: isolate;
      }

      .st5, .st6, .st11, .st13, .st10 {
        font-size: 16px;
      }

      .st6 {
        display: none;
      }

      .st11 {
        fill: #666;
      }

      .st1 {
        stroke: #333;
      }

      .st13 {
        fill: #fff;
      }

      .st8 {
        letter-spacing: -.3em;
      }

      .st14 {
        fill: #155f83;
        stroke: #fff;
      }

      .st2 {
        stroke: #e6e6e6;
      }

      .st10 {
        letter-spacing: -.2em;
      }
    </style>
  </defs>
  <g id="Layer_1">
    <rect class="st0" x="174" y="92" width="416" height="260"/>
    <path class="st0" d="M174,144.5h416"/>
    <path class="st0" d="M174,352.5h416"/>
    <path class="st0" d="M174,92.5h416"/>
    <path class="st2" d="M173.5,92v260"/>
    <path class="st2" d="M277.5,92v260"/>
    <path class="st2" d="M485.5,92v260"/>
    <path class="st2" d="M381.5,92.2v260"/>
    <path class="st0" d="M174,352h416"/>
    <g id="bars">
      <path class="st14" d="M556.5,138.5v-41c0-1.7-1.3-3-3-3H173.5v47h380c1.7,0,3-1.3,3-3Z"/>
      <path class="st14" d="M494.5,190.5v-41c0-1.7-1.3-3-3-3H173.5v47h318c1.7,0,3-1.3,3-3Z"/>
      <path class="st14" d="M224.5,242.5v-41c0-1.7-1.3-3-3-3h-48v47h48c1.7,0,3-1.3,3-3Z"/>
      <path class="st14" d="M210.5,294.5v-41c0-1.7-1.3-3-3-3h-34v47h34c1.7,0,3-1.3,3-3h0Z"/>
      <path class="st14" d="M210.5,346.5v-41c0-1.7-1.3-3-3-3h-34v47h34c1.7,0,3-1.3,3-3h0Z"/>
    </g>
    <text class="st7" transform="translate(43.1 25)"><tspan x="0" y="0">Top Five Campaigns/Committees Faculty Donated</tspan></text>
    <text class="st8" transform="translate(173.6 48)"><tspan x="0" y="0">​</tspan></text>
    <text class="st4" transform="translate(193.6 48)"><tspan x="0" y="0">to in the 2020 Election</tspan></text>
    <text class="st11" transform="translate(71.2 75)"><tspan x="0" y="0">The top five campaigns/committees were all Democratic leaning.</tspan></text>
    <text class="st9" transform="translate(35 109.8)"><tspan x="0" y="0">Biden For President/</tspan></text>
    <text class="st10" transform="translate(5.1 134)"><tspan x="0" y="0">​</tspan></text>
    <text class="st3" transform="translate(44.2 127.3)"><tspan x="0" y="0">Biden Victory Fund</tspan></text>
    <text class="st9" transform="translate(116.9 175.5)"><tspan x="0" y="0">ActBlue</tspan></text>
    <text class="st9" transform="translate(36.9 222)"><tspan x="0" y="0">Democratic National</tspan></text>
    <text class="st10" transform="translate(64.7 238)"><tspan x="0" y="0">​</tspan></text>
    <text class="st3" transform="translate(96.1 238.2)"><tspan x="0" y="0">Committee</tspan></text>
    <text class="st9" transform="translate(126.9 280.3)"><tspan x="0" y="0">DCCC</tspan></text>
    <text class="st9" transform="translate(44.5 326)"><tspan x="0" y="0">Lauren Underwood</tspan></text>
    <text class="st10" transform="translate(49.8 342)"><tspan x="0" y="0">​</tspan></text>
    <text class="st3" transform="translate(83.1 337.8)"><tspan x="0" y="0">For Congress</tspan></text>
    <text class="st5" transform="translate(217.5 330.7)"><tspan x="0" y="0">$52k</tspan></text>
    <text class="st5" transform="translate(217.5 280.3)"><tspan x="0" y="0">$53k</tspan></text>
    <text class="st5" transform="translate(231.5 226.2)"><tspan x="0" y="0">$58k</tspan></text>
    <text class="st13" transform="translate(434.1 175.5)"><tspan x="0" y="0">$306k</tspan></text>
    <text class="st13" transform="translate(498.4 121.9)"><tspan x="0" y="0">$346k</tspan></text>
    <text class="st6" transform="translate(-23.5)"><tspan x="0" y="0">$400k</tspan></text>
    <path class="st1" d="M173.5,92v260"/>
  </g>
  <g id="ai2html-settings">
    <text id="ai2html-settings1" data-name="ai2html-settings" class="st12" transform="translate(-450 10.6)"><tspan x="0" y="0">ai2html-settings</tspan><tspan x="0" y="19">settings_version: 0.121.1</tspan><tspan x="0" y="38">image_format: auto</tspan><tspan x="0" y="57">responsiveness: fixed</tspan><tspan x="0" y="76">include_resizer_script: true</tspan><tspan x="0" y="95">use_lazy_loader: false</tspan><tspan x="0" y="114">output: one-file</tspan><tspan x="0" y="133">html_output_path: ai2html-output/</tspan><tspan x="0" y="152">image_output_path: ai2html-output/</tspan><tspan x="0" y="171">image_source_path: </tspan><tspan x="0" y="190">local_preview_template: </tspan><tspan x="0" y="209">png_number_of_colors: 128</tspan><tspan x="0" y="228">jpg_quality: 60</tspan><tspan x="0" y="247">headline: </tspan><tspan x="0" y="266">leadin: </tspan><tspan x="44.9" y="266">The top five campaigns/committees were all Democratic </tspan><tspan x="0" y="285">leaning. </tspan><tspan x="0" y="304">notes: </tspan><tspan x="0" y="323">sources: </tspan><tspan x="0" y="342">credit: </tspan></text>
  </g>
</svg>