<svg aria-hidden="false" aria-label="Interactive chart" viewBox="0 0 600 400" height="400" width="600" xmlns="http://www.w3.org/2000/svg" style="font-family: Georgia, serif; font-size: 1rem;" class="highcharts-root" version="1.1" xmlns:xlink="http://www.w3.org/1999/xlink"><desc aria-hidden="true">Created with Highcharts 11.0.0</desc><defs aria-hidden="true"><filter id="drop-shadow"><fedropshadow stdDeviation="2.5" flood-opacity="0.75" flood-color="#000000" dy="1" dx="1"></fedropshadow></filter><clipPath id="highcharts-ut9pgid-11-"><rect fill="none" height="416" width="260" y="0" x="0"></rect></clipPath><clipPath id="highcharts-ut9pgid-17-"><rect fill="none" height="416" width="260" y="0" x="0"></rect></clipPath><filter id="drop-shadow--1--1"><fedropshadow stdDeviation="2.5" flood-opacity="0.75" flood-color="#000000" dy="-1" dx="-1"></fedropshadow></filter></defs><rect aria-hidden="true" ry="0" rx="0" height="400" width="600" y="0" x="0" filter="none" class="highcharts-background" fill="#ffffff"></rect><rect aria-hidden="true" filter="none" height="260" width="416" y="92" x="174" class="highcharts-plot-background" fill="none"></rect><g aria-hidden="true" data-z-index="0" class="highcharts-pane-group"></g><g aria-hidden="true" data-z-index="1" class="highcharts-grid highcharts-xaxis-grid"><path opacity="1" d="M 174 144.5 L 590 144.5" class="highcharts-grid-line" data-z-index="1" stroke-dasharray="none" stroke-width="0" stroke="#e6e6e6" fill="none"></path><path opacity="1" d="M 174 196.5 L 590 196.5" class="highcharts-grid-line" data-z-index="1" stroke-dasharray="none" stroke-width="0" stroke="#e6e6e6" fill="none"></path><path opacity="1" d="M 174 248.5 L 590 248.5" class="highcharts-grid-line" data-z-index="1" stroke-dasharray="none" stroke-width="0" stroke="#e6e6e6" fill="none"></path><path opacity="1" d="M 174 300.5 L 590 300.5" class="highcharts-grid-line" data-z-index="1" stroke-dasharray="none" stroke-width="0" stroke="#e6e6e6" fill="none"></path><path opacity="1" d="M 174 352.5 L 590 352.5" class="highcharts-grid-line" data-z-index="1" stroke-dasharray="none" stroke-width="0" stroke="#e6e6e6" fill="none"></path><path opacity="1" d="M 174 92.5 L 590 92.5" class="highcharts-grid-line" data-z-index="1" stroke-dasharray="none" stroke-width="0" stroke="#e6e6e6" fill="none"></path></g><g aria-hidden="true" data-z-index="1" class="highcharts-grid highcharts-yaxis-grid"><path opacity="1" d="M 173.5 92 L 173.5 352" class="highcharts-grid-line" data-z-index="1" stroke-dasharray="none" stroke-width="1" stroke="#e6e6e6" fill="none"></path><path opacity="1" d="M 277.5 92 L 277.5 352" class="highcharts-grid-line" data-z-index="1" stroke-dasharray="none" stroke-width="1" stroke="#e6e6e6" fill="none"></path><path opacity="1" d="M 381.5 92 L 381.5 352" class="highcharts-grid-line" data-z-index="1" stroke-dasharray="none" stroke-width="1" stroke="#e6e6e6" fill="none"></path><path opacity="1" d="M 485.5 92 L 485.5 352" class="highcharts-grid-line" data-z-index="1" stroke-dasharray="none" stroke-width="1" stroke="#e6e6e6" fill="none"></path><path opacity="1" d="M 590.5 92 L 590.5 352" class="highcharts-grid-line" data-z-index="1" stroke-dasharray="none" stroke-width="1" stroke="#e6e6e6" fill="none"></path></g><rect aria-hidden="true" height="260" width="416" y="92" x="174" stroke-width="0" stroke="#cccccc" data-z-index="1" class="highcharts-plot-border" fill="none"></rect><g aria-hidden="true" data-z-index="2" class="highcharts-axis highcharts-xaxis"><path d="M 173.5 92 L 173.5 352" data-z-index="7" stroke-width="1" stroke="#333333" class="highcharts-axis-line" fill="none"></path></g><g aria-hidden="true" data-z-index="2" class="highcharts-axis highcharts-yaxis"><path d="M 174 352 L 590 352" data-z-index="7" stroke-width="0" stroke="#333333" class="highcharts-axis-line" fill="none"></path></g><g aria-hidden="false" filter="none" data-z-index="3" class="highcharts-series-group"><g aria-hidden="false" clip-path="url(#highcharts-ut9pgid-17-)" transform="translate(174,92) rotate(90 78 338) scale(-1 1)" opacity="1" data-z-index="0.1" class="highcharts-series highcharts-series-0 highcharts-bar-series highcharts-color-0"><path style="outline: none;" aria-label="Biden For President/Biden Victory Fund, $367,971." role="img" tabindex="-1" class="highcharts-point highcharts-color-0" filter="none" opacity="1" stroke-width="1" stroke="#ffffff" d="M 213.5 33.5 L 254.5 33.5 A 3 3 0 0 1 257.5 36.5 L 257.5 416.5 A 0 0 0 0 1 257.5 416.5 L 210.5 416.5 A 0 0 0 0 1 210.5 416.5 L 210.5 36.5 A 3 3 0 0 1 213.5 33.5 Z" fill="#155F83"></path><path style="outline: none;" aria-label="ActBlue, $308,475." role="img" tabindex="-1" class="highcharts-point highcharts-color-0" filter="none" opacity="1" stroke-width="1" stroke="#ffffff" d="M 161.5 95.5 L 202.5 95.5 A 3 3 0 0 1 205.5 98.5 L 205.5 416.5 A 0 0 0 0 1 205.5 416.5 L 158.5 416.5 A 0 0 0 0 1 158.5 416.5 L 158.5 98.5 A 3 3 0 0 1 161.5 95.5 Z" fill="#155F83"></path><path style="outline: none;" aria-label="Democratic NationalCommittee, $48,787." role="img" tabindex="-1" class="highcharts-point highcharts-color-0" filter="none" opacity="1" stroke-width="1" stroke="#ffffff" d="M 109.5 365.5 L 150.5 365.5 A 3 3 0 0 1 153.5 368.5 L 153.5 416.5 A 0 0 0 0 1 153.5 416.5 L 106.5 416.5 A 0 0 0 0 1 106.5 416.5 L 106.5 368.5 A 3 3 0 0 1 109.5 365.5 Z" fill="#155F83"></path><path style="outline: none;" aria-label="DCCC, $35,841." role="img" tabindex="-1" class="highcharts-point highcharts-color-0" filter="none" opacity="1" stroke-width="1" stroke="#ffffff" d="M 57.5 379.5 L 98.5 379.5 A 3 3 0 0 1 101.5 382.5 L 101.5 416.5 A 0 0 0 0 1 101.5 416.5 L 54.5 416.5 A 0 0 0 0 1 54.5 416.5 L 54.5 382.5 A 3 3 0 0 1 57.5 379.5 Z" fill="#155F83"></path><path style="outline: none;" aria-label="Lauren UnderwoodFor Congress, $35,644." role="img" tabindex="-1" class="highcharts-point highcharts-color-0" filter="none" opacity="1" stroke-width="1" stroke="#ffffff" d="M 5.5 379.5 L 46.5 379.5 A 3 3 0 0 1 49.5 382.5 L 49.5 416.5 A 0 0 0 0 1 49.5 416.5 L 2.5 416.5 A 0 0 0 0 1 2.5 416.5 L 2.5 382.5 A 3 3 0 0 1 5.5 379.5 Z" fill="#155F83"></path></g><g aria-hidden="true" clip-path="none" transform="translate(174,92) scale(1 1)" opacity="1" data-z-index="0.1" class="highcharts-markers highcharts-series-0 highcharts-bar-series highcharts-color-0"></g></g><text aria-hidden="true" y="25" style="color: rgb(51, 51, 51); font-size: 20px; font-weight: bold; fill: rgb(51, 51, 51);" data-z-index="4" class="highcharts-title" text-anchor="middle" x="300">Top Five Campaigns/Committees Faculty Donated<tspan x="300" dy="23">​</tspan>to in the 2020 Election</text><text aria-hidden="true" y="75" style="color: rgb(102, 102, 102); font-size: 18px; fill: rgb(102, 102, 102);" data-z-index="4" class="highcharts-subtitle" text-anchor="middle" x="300">The top five campaigns/committees were all Democratic leaning.</text><text aria-hidden="true" y="397" style="color: rgb(102, 102, 102); font-size: 0.8em; fill: rgb(102, 102, 102);" data-z-index="4" class="highcharts-caption" text-anchor="start" x="10"></text><g aria-hidden="true" data-z-index="7" class="highcharts-axis-labels highcharts-xaxis-labels"><text opacity="1" y="115" style="color: rgb(51, 51, 51); cursor: default; font-size: 16px; fill: rgb(51, 51, 51);" transform="translate(0,0)" text-anchor="end" x="159">Biden For President/<tspan x="159" dy="19" class="highcharts-br">​</tspan>Biden Victory Fund</text><text opacity="1" y="176" style="color: rgb(51, 51, 51); cursor: default; font-size: 16px; fill: rgb(51, 51, 51);" transform="translate(0,0)" text-anchor="end" x="159">ActBlue</text><text opacity="1" y="219" style="color: rgb(51, 51, 51); cursor: default; font-size: 16px; fill: rgb(51, 51, 51);" transform="translate(0,0)" text-anchor="end" x="159">Democratic National<tspan x="159" dy="19" class="highcharts-br">​</tspan>Committee</text><text opacity="1" y="280" style="color: rgb(51, 51, 51); cursor: default; font-size: 16px; fill: rgb(51, 51, 51);" transform="translate(0,0)" text-anchor="end" x="159">DCCC</text><text opacity="1" y="323" style="color: rgb(51, 51, 51); cursor: default; font-size: 16px; fill: rgb(51, 51, 51);" transform="translate(0,0)" text-anchor="end" x="159">Lauren Underwood<tspan x="159" dy="19" class="highcharts-br">​</tspan>For Congress</text></g><g aria-hidden="true" data-z-index="7" class="highcharts-axis-labels highcharts-yaxis-labels"><text opacity="1" y="382" style="color: rgb(51, 51, 51); cursor: default; font-size: 16px; fill: rgb(51, 51, 51);" transform="translate(0,0)" text-anchor="middle" x="174">$0</text><text opacity="1" y="382" style="color: rgb(51, 51, 51); cursor: default; font-size: 16px; fill: rgb(51, 51, 51);" transform="translate(0,0)" text-anchor="middle" x="278">$100k</text><text opacity="1" y="382" style="color: rgb(51, 51, 51); cursor: default; font-size: 16px; fill: rgb(51, 51, 51);" transform="translate(0,0)" text-anchor="middle" x="382">$200k</text><text opacity="1" y="382" style="color: rgb(51, 51, 51); cursor: default; font-size: 16px; fill: rgb(51, 51, 51);" transform="translate(0,0)" text-anchor="middle" x="486">$300k</text><text visibility="hidden" style="color: rgb(51, 51, 51); cursor: default; font-size: 16px; fill: rgb(51, 51, 51);" transform="translate(0,0)" text-anchor="middle" x="0">$400k</text></g><text aria-hidden="false" aria-label="Chart credits: Highcharts.com" style="cursor: pointer; color: rgb(153, 153, 153); font-size: 0.6em; fill: rgb(153, 153, 153);" y="395" data-z-index="8" text-anchor="end" class="highcharts-credits" x="590">Highcharts.com</text></svg>