<?xml version="1.0" encoding="UTF-8"?>
<svg id="g-candidates_edit_site2-Artboard_3-points-old-img" xmlns="http://www.w3.org/2000/svg" baseProfile="tiny" version="1.2" viewBox="0 0 600 400">
  <!-- Generator: Adobe Illustrator 29.3.1, SVG Export Plug-In . SVG Version: 2.1.0 Build 151)  -->
  <path d="M428.688,108.293c-2.209.001-4.001-1.789-4.002-3.998,0-2.209,1.789-4.001,3.998-4.002,2.209-.001,4.001,1.789,4.002,3.998.001,2.208-1.787,3.999-3.994,4.002h-.004Z" fill="maroon"/>
  <path d="M502.688,151.293c-2.209-.001-3.999-1.793-3.998-4.002.001-2.209,1.793-3.999,4.002-3.998s3.999,1.793,3.998,4.002c-.001,2.208-1.79,3.997-3.998,3.998h-.004Z" fill="maroon"/>
  <path d="M575.688,237.293c-2.209-.001-3.999-1.793-3.998-4.002s1.793-3.999,4.002-3.998,3.999,1.793,3.998,4.002c-.001,2.208-1.79,3.997-3.998,3.998h-.004Z" fill="maroon"/>
  <path d="M59.688,108.293c-2.209.001-4.001-1.789-4.002-3.998-.001-2.209,1.789-4.001,3.998-4.002,2.209-.001,4.001,1.789,4.002,3.998.001,2.208-1.787,3.999-3.994,4.002h-.004Z" fill="maroon"/>
  <path d="M132.688,108.293c-2.209.001-4.001-1.789-4.002-3.998-.001-2.209,1.789-4.001,3.998-4.002,2.209-.001,4.001,1.789,4.002,3.998,0,2.208-1.787,3.999-3.994,4.002h-.004Z" fill="maroon"/>
  <path d="M206.688,179.293c-2.209-.001-3.999-1.793-3.998-4.002s1.793-3.999,4.002-3.998,3.999,1.793,3.998,4.002c-.001,2.208-1.79,3.997-3.998,3.998h-.004Z" fill="maroon"/>
  <path d="M280.688,165.293c-2.209-.001-3.999-1.793-3.998-4.002s1.793-3.999,4.002-3.998,3.999,1.793,3.998,4.002c-.001,2.208-1.79,3.997-3.998,3.998h-.004Z" fill="maroon"/>
  <path d="M354.688,93.293c-2.209,0-4-1.791-4-4,0-2.209,1.791-4,4-4s4,1.791,4,4c0,2.208-1.789,3.998-3.996,4h-.004Z" fill="maroon"/>
<style>
#g-candidates_edit_site2-Artboard_3-points-old-img rect, #g-candidates_edit_site2-Artboard_3-points-old-img circle, #g-candidates_edit_site2-Artboard_3-points-old-img path, #g-candidates_edit_site2-Artboard_3-points-old-img line, #g-candidates_edit_site2-Artboard_3-points-old-img polyline, #g-candidates_edit_site2-Artboard_3-points-old-img polygon { vector-effect: non-scaling-stroke; }
</style>
</svg>
