<?xml version="1.0" encoding="UTF-8"?>
<svg id="Layer_1" xmlns="http://www.w3.org/2000/svg" xmlns:xlink="http://www.w3.org/1999/xlink" version="1.1" viewBox="0 0 600 400">
  <!-- Generator: Adobe Illustrator 29.3.1, SVG Export Plug-In . SVG Version: 2.1.0 Build 151)  -->
  <defs>
    <style>
      .st0, .st1, .st2, .st3, .st4, .st5, .st6 {
        fill: none;
      }

      .st7 {
        fill: maroon;
      }

      .st7, .st8 {
        font-size: 10px;
      }

      .st7, .st8, .st9 {
        font-family: Georgia-Bold, Georgia;
        font-weight: 700;
      }

      .st8, .st1 {
        opacity: .5;
      }

      .st1, .st2, .st3, .st4 {
        stroke-linecap: round;
        stroke-linejoin: round;
      }

      .st1, .st2, .st4 {
        stroke: #000;
      }

      .st1, .st3 {
        stroke-width: 2px;
      }

      .st9 {
        font-size: 15px;
      }

      .st9, .st10, .st11 {
        isolation: isolate;
      }

      .st9, .st11 {
        fill: #333;
      }

      .st3 {
        stroke: maroon;
      }

      .st4 {
        stroke-dasharray: 12 12;
      }

      .st5 {
        stroke: #333;
      }

      .st12 {
        opacity: .2;
      }

      .st10 {
        fill: #666;
        font-size: 13px;
      }

      .st10, .st11 {
        font-family: Georgia, Georgia;
      }

      .st6 {
        stroke: #e6e6e6;
      }

      .st11 {
        font-size: 9.6px;
      }
    </style>
  </defs>
  <text class="st11" transform="translate(541.3 380.2)"><tspan x="0" y="0">2023</tspan></text>
  <rect class="st0" x="39.1" y="78.2" width="527" height="287"/>
  <path class="st6" d="M39.1,365.7h527"/>
  <path class="st6" d="M39.1,293.7h527"/>
  <path class="st6" d="M39.1,222.7h527"/>
  <path class="st6" d="M39.1,150.7h527"/>
  <path class="st6" d="M39.1,77.7h527"/>
  <rect class="st0" x="39.1" y="78.2" width="527" height="287"/>
  <path class="st5" d="M39.1,365.7h527"/>
  <path class="st1" d="M44.3,106.9h73.8l73.8,71.7,73.8-14.3,73.8-71.7"/>
  <path class="st3" d="M339.5,92.6l73.8,14.4,73.8,43,73.8,86.1"/>
  <text class="st9" transform="translate(39.1 29.6)"><tspan x="0" y="0">First-Year Candidates for College Council from 2016 to 2023</tspan></text>
  <text class="st11" transform="translate(33.9 380.2)"><tspan x="0" y="0">2016</tspan></text>
  <text class="st11" transform="translate(108 380.2)"><tspan x="0" y="0">2017</tspan></text>
  <text class="st11" transform="translate(181.4 380.2)"><tspan x="0" y="0">2018</tspan></text>
  <text class="st11" transform="translate(255.3 380.2)"><tspan x="0" y="0">2019</tspan></text>
  <text class="st11" transform="translate(328.3 380.2)"><tspan x="0" y="0">2020</tspan></text>
  <text class="st11" transform="translate(403 380.2)"><tspan x="0" y="0">2021</tspan></text>
  <text class="st11" transform="translate(476.2 380.2)"><tspan x="0" y="0">2022</tspan></text>
  <text class="st11" transform="translate(44 286.2)"><tspan x="0" y="0">5</tspan></text>
  <text class="st11" transform="translate(39.1 217.2)"><tspan x="0" y="0">10</tspan></text>
  <text class="st11" transform="translate(39.9 143.2)"><tspan x="0" y="0">15</tspan></text>
  <text class="st11" transform="translate(37.9 72.2)"><tspan x="0" y="0">20</tspan></text>
  <g class="st12">
    <g>
      <line class="st2" x1="339.1" y1="78.2" x2="339.1" y2="84.2"/>
      <line class="st4" x1="339.1" y1="96.2" x2="339.1" y2="353.2"/>
      <line class="st2" x1="339.1" y1="359.2" x2="339.1" y2="365.2"/>
    </g>
  </g>
  <text class="st7" transform="translate(495.9 248.1)"><tspan x="0" y="0">9 candidates</tspan><tspan x="26" y="12">in 2023</tspan></text>
  <text class="st8" transform="translate(257.8 89.1)"><tspan x="0" y="0">19 candidates</tspan><tspan x="30.1" y="12">in 2020</tspan></text>
  <text class="st10" transform="translate(39.6 48.9)"><tspan x="0" y="0">Since 2020, the number of candidates has dropped each year reaching a 8-year low in 2023</tspan></text>
</svg>